<svg xmlns="http://www.w3.org/2000/svg" xmlns:xlink="http://www.w3.org/1999/xlink" viewBox="0 0 422.7 424.9"><style>.st3{fill:#fff}.st6{fill:#dadce5}.st7{fill:#f0f1f2}.st11{opacity:.7;fill:#fff}.st32{clip-path:url(#SVGID_32_)}</style><g id="laptop"><defs><path id="SVGID_1_" d="M364.6 1064.3h364.8v333.8H364.6z"/></defs><clipPath id="SVGID_2_"><use xlink:href="#SVGID_1_" overflow="visible"/></clipPath><g clip-path="url(#SVGID_2_)"><defs><path id="SVGID_3_" d="M445.8 1097.2c2.5 0 4.4 1.9 4.4 4.4 0 2.5-1.9 4.4-4.4 4.4s-4.4-1.9-4.4-4.4c0-2.5 1.9-4.4 4.4-4.4z"/></defs><use xlink:href="#SVGID_3_" overflow="visible" fill-rule="evenodd" clip-rule="evenodd" fill="#dadce5"/><clipPath id="SVGID_4_"><use xlink:href="#SVGID_3_" overflow="visible"/></clipPath><g clip-path="url(#SVGID_4_)"><defs><path id="SVGID_5_" d="M-2581-58.7h4891.8v2911.8H-2581z"/></defs><use xlink:href="#SVGID_5_" overflow="visible" fill="#dadce5"/><clipPath id="SVGID_6_"><use xlink:href="#SVGID_5_" overflow="visible"/></clipPath></g></g><defs><circle id="SVGID_7_" cx="-652.3" cy="1185.5" r="211.3"/></defs><clipPath id="SVGID_8_"><use xlink:href="#SVGID_7_" overflow="visible"/></clipPath><g clip-path="url(#SVGID_8_)"><defs><path id="SVGID_9_" d="M-718.2 1077.1c2.1 0 3.6 1.6 3.6 3.7s-1.6 3.7-3.6 3.7c-2.1 0-3.6-1.6-3.6-3.7s1.5-3.7 3.6-3.7z"/></defs><use xlink:href="#SVGID_9_" overflow="visible" fill-rule="evenodd" clip-rule="evenodd" fill="#dadce5"/><clipPath id="SVGID_10_"><use xlink:href="#SVGID_9_" overflow="visible"/></clipPath><g clip-path="url(#SVGID_10_)"><defs><path id="SVGID_11_" d="M-3249.8 110.3H841.6v2435.4h-4091.4z"/></defs><use xlink:href="#SVGID_11_" overflow="visible" fill="#dadce5"/><clipPath id="SVGID_12_"><use xlink:href="#SVGID_11_" overflow="visible"/></clipPath></g></g><defs><circle id="SVGID_13_" cx="-92.9" cy="1185.5" r="211.3"/></defs><clipPath id="SVGID_14_"><use xlink:href="#SVGID_13_" overflow="visible"/></clipPath><g clip-path="url(#SVGID_14_)"><defs><path id="SVGID_15_" d="M-158.8 1077.1c2.1 0 3.6 1.6 3.6 3.7s-1.6 3.7-3.6 3.7c-2.1 0-3.6-1.6-3.6-3.7s1.6-3.7 3.6-3.7z"/></defs><use xlink:href="#SVGID_15_" overflow="visible" fill-rule="evenodd" clip-rule="evenodd" fill="#dadce5"/><clipPath id="SVGID_16_"><use xlink:href="#SVGID_15_" overflow="visible"/></clipPath><g clip-path="url(#SVGID_16_)"><defs><path id="SVGID_17_" d="M-2690.3 110.3h4091.4v2435.4h-4091.4z"/></defs><use xlink:href="#SVGID_17_" overflow="visible" fill="#dadce5"/><clipPath id="SVGID_18_"><use xlink:href="#SVGID_17_" overflow="visible"/></clipPath></g></g></g><g id="phone"><defs><circle id="SVGID_71_" cx="88" cy="-290.2" r="211.3"/></defs><clipPath id="SVGID_20_"><use xlink:href="#SVGID_71_" overflow="visible"/></clipPath><g clip-path="url(#SVGID_20_)"><defs><path id="SVGID_73_" d="M22.1-398.6c2.1 0 3.6 1.6 3.6 3.7s-1.6 3.7-3.6 3.7-3.6-1.6-3.6-3.7c-.1-2.1 1.5-3.7 3.6-3.7z"/></defs><use xlink:href="#SVGID_73_" overflow="visible" fill-rule="evenodd" clip-rule="evenodd" fill="#3c4043"/><clipPath id="SVGID_22_"><use xlink:href="#SVGID_73_" overflow="visible"/></clipPath><g clip-path="url(#SVGID_22_)"><defs><path id="SVGID_75_" d="M-2509.5-1365.4h4091.4V1070h-4091.4z"/></defs><use xlink:href="#SVGID_75_" overflow="visible" fill="#3c4043"/><clipPath id="SVGID_24_"><use xlink:href="#SVGID_75_" overflow="visible"/></clipPath></g></g><defs><circle id="SVGID_85_" cx="1412.6" cy="213.6" r="211.3"/></defs><clipPath id="SVGID_26_"><use xlink:href="#SVGID_85_" overflow="visible"/></clipPath><g clip-path="url(#SVGID_26_)"><defs><path id="SVGID_87_" d="M1346.7 105.2c2.1 0 3.6 1.6 3.6 3.7s-1.6 3.7-3.6 3.7c-2.1 0-3.6-1.6-3.6-3.7-.1-2.2 1.5-3.7 3.6-3.7z"/></defs><use xlink:href="#SVGID_87_" overflow="visible" fill-rule="evenodd" clip-rule="evenodd" fill="#dadce5"/><clipPath id="SVGID_28_"><use xlink:href="#SVGID_87_" overflow="visible"/></clipPath><g clip-path="url(#SVGID_28_)"><defs><path id="SVGID_89_" d="M-1184.9-861.7h4091.4v2435.4h-4091.4z"/></defs><use xlink:href="#SVGID_89_" overflow="visible" fill="#dadce5"/><clipPath id="SVGID_30_"><use xlink:href="#SVGID_89_" overflow="visible"/></clipPath></g></g><circle cx="211.3" cy="212.6" r="211.3" opacity=".76" fill="#eceff1"/><path d="M19.2 300.6C52.5 373.4 126 423.9 211.3 423.9s158.8-50.5 192.2-123.3H19.2z" opacity=".42" fill="#dadce5"/><defs><circle id="SVGID_91_" cx="211.3" cy="212.6" r="211.3"/></defs><clipPath id="SVGID_32_"><use xlink:href="#SVGID_91_" overflow="visible"/></clipPath><g class="st32"><path class="st6" d="M366.4 338.2H23.6c-1.5 0-2.7-1.2-2.7-2.7v-2.1c0-1.5 1.2-2.7 2.7-2.7h342.8c1.5 0 2.7 1.2 2.7 2.7v2.1c.1 1.5-1.2 2.7-2.7 2.7z"/><path class="st3" d="M302.6 314.2V106.6c0-5.2-4.2-9.5-9.5-9.5H.9c-5.2 0-9.5 4.2-9.5 9.5v207.6h311.2z"/><defs><path id="SVGID_93_" d="M145.4 104.2c2.1 0 3.6 1.6 3.6 3.7s-1.6 3.7-3.6 3.7c-2.1 0-3.6-1.6-3.6-3.7s1.5-3.7 3.6-3.7z"/></defs><use xlink:href="#SVGID_93_" overflow="visible" fill-rule="evenodd" clip-rule="evenodd" fill="#dadce5"/><clipPath id="SVGID_34_"><use xlink:href="#SVGID_93_" overflow="visible"/></clipPath><g clip-path="url(#SVGID_34_)"><defs><path id="SVGID_95_" d="M-2386.1-862.7h4091.4v2435.4h-4091.4z"/></defs><use xlink:href="#SVGID_95_" overflow="visible" fill="#dadce5"/><clipPath id="SVGID_36_"><use xlink:href="#SVGID_95_" overflow="visible"/></clipPath><path clip-path="url(#SVGID_36_)" fill="#dadce5" d="M129.6 92h31.7v31.7h-31.7z"/></g></g><path d="M302.5 314.2V106.6c0-5.2-4.2-9.5-9.5-9.5H.8c-5.2 0-9.5 4.2-9.5 9.5v207.6" clip-path="url(#SVGID_32_)" fill="none" stroke="#d1d3d4" stroke-width="2" stroke-miterlimit="10"/><g class="st32"><path class="st7" d="M-2.4 120.1h287.1v176.5H-2.4z"/><path fill="#e4e8ea" d="M9.1 120.1h275.7v4H9.1z"/><path class="st11" d="M108.5 149.9H61.7c-2.8 0-5.1-2.3-5.1-5.1v-4c0-2.8 2.3-5.1 5.1-5.1h46.8c2.8 0 5.1 2.3 5.1 5.1v4c0 2.8-2.3 5.1-5.1 5.1zm123.3 96.6H185c-2.8 0-5.1-2.3-5.1-5.1v-4c0-2.8 2.3-5.1 5.1-5.1h46.8c2.8 0 5.1 2.3 5.1 5.1v4c0 2.8-2.3 5.1-5.1 5.1zm0 19.6H185c-2.8 0-5.1-2.3-5.1-5.1v-4c0-2.8 2.3-5.1 5.1-5.1h46.8c2.8 0 5.1 2.3 5.1 5.1v4c0 2.8-2.3 5.1-5.1 5.1zm-21.1 21.4h-149c-2.8 0-5.1-2.3-5.1-5.1v-4c0-2.8 2.3-5.1 5.1-5.1h149c2.8 0 5.1 2.3 5.1 5.1v4c0 2.8-2.3 5.1-5.1 5.1zm-108.9-65.3H68.4c-6.6 0-11.9-5.3-11.9-11.9v-40c0-6.6 5.3-11.9 11.9-11.9h33.3c6.6 0 11.9 5.3 11.9 11.9v40c0 6.6-5.3 11.9-11.8 11.9z"/><circle class="st11" cx="228.4" cy="280.7" r="7.5"/></g><path d="M-17.3 313.4v5.8c0 7.9 7 14.1 15.9 14.1h357.1c8.9 0 15.9-6.2 15.9-14.1v-5.8H-17.3z" clip-path="url(#SVGID_32_)" fill="#f4f4f4"/><path d="M193.9 321.3h-57c-4.2 0-7.6-3.5-7.6-7.8h72.6c0 4.3-3.4 7.8-8 7.8z" clip-path="url(#SVGID_32_)" fill="#dadce5"/><path class="st6" d="M393 210l-51.3.4c-9.2.1-16.6-7.3-16.7-16.5l-.9-126.2c-.1-9.2 7.3-16.6 16.5-16.7l51.3-.4c9.2-.1 16.6 7.3 16.7 16.5l.9 126.2c0 9.1-7.3 16.6-16.5 16.7z"/><path class="st3" d="M395.7 204.6h-65.3c-5.3 0-9.6-4.3-9.6-9.6V54.8c0-5.3 4.3-9.6 9.6-9.6h65.3c5.3 0 9.6 4.3 9.6 9.6V195c-.1 5.4-4.4 9.6-9.6 9.6z"/><path class="st7" d="M320.8 67.1h84.4v119.6h-84.4z"/><circle class="st6" cx="362.3" cy="56.9" r="3.4"/><path opacity=".5" fill="#dee1e2" d="M320.8 67.1h84.4v3.7h-84.4z"/><path d="M330.4 47.3h65.3c2 0 3.9.8 5.3 2.2 1.4 1.4 2.2 3.3 2.2 5.3V195c0 4.2-3.4 7.6-7.6 7.6h-65.3c-4.2 0-7.6-3.4-7.6-7.6V54.8c.1-4.1 3.5-7.5 7.7-7.5m0-2c-5.3 0-9.6 4.3-9.6 9.6v140.2c0 5.3 4.3 9.6 9.6 9.6h65.3c5.3 0 9.6-4.3 9.6-9.6V54.9c0-5.3-4.3-9.6-9.6-9.6h-65.3z" fill="#d1d3d4"/></g></svg>